<svg xmlns="http://www.w3.org/2000/svg" xmlns:xlink="http://www.w3.org/1999/xlink" viewBox="0 0 64 64"><defs><style>.cls-1{fill:url(#linear-gradient);}.cls-2{fill:url(#linear-gradient-2);}.cls-3{fill:url(#linear-gradient-3);}.cls-4{fill:url(#linear-gradient-4);}.cls-5{fill:url(#linear-gradient-5);}.cls-6{fill:url(#linear-gradient-6);}.cls-7{fill:url(#linear-gradient-7);}.cls-8{fill:url(#linear-gradient-8);}.cls-9{fill:url(#linear-gradient-9);}.cls-10{fill:url(#linear-gradient-10);}</style><linearGradient id="linear-gradient" x1="49.26" y1="54" x2="49.26" y2="10" gradientUnits="userSpaceOnUse"><stop offset="0" stop-color="#54a5ff"/><stop offset="1" stop-color="#8ad3fe"/></linearGradient><linearGradient id="linear-gradient-2" x1="20" y1="50" x2="20" y2="38" gradientUnits="userSpaceOnUse"><stop offset="0" stop-color="#d3e6f5"/><stop offset="1" stop-color="#f0f7fc"/></linearGradient><linearGradient id="linear-gradient-3" y1="38" y2="26" xlink:href="#linear-gradient-2"/><linearGradient id="linear-gradient-4" y1="26" y2="14" xlink:href="#linear-gradient-2"/><linearGradient id="linear-gradient-5" x1="7" y1="46" x2="7" y2="42" gradientUnits="userSpaceOnUse"><stop offset="0" stop-color="#fe9661"/><stop offset="1" stop-color="#ffb369"/></linearGradient><linearGradient id="linear-gradient-6" x1="11.59" y1="45.41" x2="14.41" y2="42.59" xlink:href="#linear-gradient"/><linearGradient id="linear-gradient-7" y1="22" y2="18" xlink:href="#linear-gradient-5"/><linearGradient id="linear-gradient-8" x1="11.59" y1="21.41" x2="14.41" y2="18.59" xlink:href="#linear-gradient"/><linearGradient id="linear-gradient-9" y1="34" y2="30" xlink:href="#linear-gradient-5"/><linearGradient id="linear-gradient-10" x1="11.59" y1="33.41" x2="14.41" y2="30.59" xlink:href="#linear-gradient"/></defs><title>Data manage</title><g id="Data_manage" data-name="Data manage"><path class="cls-1" d="M36.66,26.07V37.93A3.08,3.08,0,0,0,38,37.24V26.76A3.08,3.08,0,0,0,36.66,26.07ZM39,41a8.12,8.12,0,0,0,.86,0,9.06,9.06,0,1,0,0-18.12A8.12,8.12,0,0,0,39,23l-1,2.26a2.09,2.09,0,0,1-.29.23,3.39,3.39,0,0,1-.53.29l-.05,0-.23.08-.23.07V13.74l.25-1.58A2.6,2.6,0,0,1,39.46,10h.81a2.6,2.6,0,0,1,2.55,2.16l.78,4.76a16.21,16.21,0,0,1,4.29,1.76l3.92-2.8a2.6,2.6,0,0,1,3.34.28l.56.56A2.58,2.58,0,0,1,56,20.05L53.18,24a15.38,15.38,0,0,1,1.76,4.28l4.76.79a2.59,2.59,0,0,1,2.16,2.56v.78A2.59,2.59,0,0,1,59.7,35l-4.76.79A15.38,15.38,0,0,1,53.18,40L56,44a2.58,2.58,0,0,1-.27,3.33l-.56.56a2.6,2.6,0,0,1-3.34.28l-3.92-2.8a16.21,16.21,0,0,1-4.29,1.76l-.78,4.76A2.6,2.6,0,0,1,40.27,54h-.81a2.6,2.6,0,0,1-2.55-2.16l-.25-1.58V38.07a3.08,3.08,0,0,1,1.33.69Z"/><path class="cls-2" d="M39,41v6a3,3,0,0,1-2.34,2.93A3.51,3.51,0,0,1,36,50H4a3,3,0,0,1-3-3V41a3,3,0,0,1,3-3H36a3.51,3.51,0,0,1,.66.07,3.08,3.08,0,0,1,1.33.69A3,3,0,0,1,39,41Z"/><path class="cls-3" d="M39,29v6a3,3,0,0,1-1,2.24,3.08,3.08,0,0,1-1.33.69A3.51,3.51,0,0,1,36,38H4a3,3,0,0,1-3-3V29a3,3,0,0,1,3-3H36a3.51,3.51,0,0,1,.66.07,3.08,3.08,0,0,1,1.33.69A3,3,0,0,1,39,29Z"/><path class="cls-4" d="M39,17v6a3,3,0,0,1-1,2.24,2.09,2.09,0,0,1-.29.23,3.39,3.39,0,0,1-.53.29l-.05,0-.23.08-.23.07A3.51,3.51,0,0,1,36,26H4a3,3,0,0,1-3-3V17a3,3,0,0,1,3-3H36a3.51,3.51,0,0,1,.66.07A3,3,0,0,1,39,17Z"/><circle class="cls-5" cx="7" cy="44" r="2"/><circle class="cls-6" cx="13" cy="44" r="2"/><circle class="cls-7" cx="7" cy="20" r="2"/><circle class="cls-8" cx="13" cy="20" r="2"/><circle class="cls-9" cx="7" cy="32" r="2"/><circle class="cls-10" cx="13" cy="32" r="2"/></g></svg>