<svg xmlns="http://www.w3.org/2000/svg" xmlns:xlink="http://www.w3.org/1999/xlink" viewBox="0 0 64 64"><defs><style>.cls-1{fill:url(#linear-gradient);}.cls-2{fill:#4795ea;}.cls-3{fill:#0668cb;}.cls-4{fill:url(#linear-gradient-2);}.cls-5{fill:url(#linear-gradient-3);}.cls-6{fill:#eb7f58;}.cls-7{fill:url(#linear-gradient-4);}.cls-8{fill:url(#linear-gradient-5);}.cls-9{fill:url(#linear-gradient-6);}.cls-10{fill:url(#linear-gradient-7);}</style><linearGradient id="linear-gradient" x1="4" y1="43" x2="60" y2="43" gradientUnits="userSpaceOnUse"><stop offset="0" stop-color="#54a5ff"/><stop offset="1" stop-color="#8ad3fe"/></linearGradient><linearGradient id="linear-gradient-2" x1="30" y1="43" x2="34" y2="43" gradientUnits="userSpaceOnUse"><stop offset="0" stop-color="#d3e6f5"/><stop offset="1" stop-color="#f0f7fc"/></linearGradient><linearGradient id="linear-gradient-3" x1="32" y1="38" x2="32" y2="4" xlink:href="#linear-gradient-2"/><linearGradient id="linear-gradient-4" x1="10" y1="20" x2="14" y2="20" gradientUnits="userSpaceOnUse"><stop offset="0" stop-color="#fe9661"/><stop offset="1" stop-color="#ffb369"/></linearGradient><linearGradient id="linear-gradient-5" x1="23" y1="29" x2="27" y2="29" xlink:href="#linear-gradient-4"/><linearGradient id="linear-gradient-6" x1="35" y1="14" x2="39" y2="14" xlink:href="#linear-gradient-4"/><linearGradient id="linear-gradient-7" x1="50" y1="25" x2="54" y2="25" xlink:href="#linear-gradient-4"/></defs><title>Analytics</title><g id="Analytics"><path class="cls-1" d="M60,38v4a6,6,0,0,1-6,6H10a6,6,0,0,1-6-6V38Z"/><polygon class="cls-2" points="38.17 48 25.83 48 21.71 60 42.29 60 38.17 48"/><path class="cls-3" d="M44,60H20a1,1,0,0,1,0-2H44a1,1,0,0,1,0,2Z"/><path class="cls-4" d="M33,44H31a1,1,0,0,1,0-2h2a1,1,0,0,1,0,2Z"/><path class="cls-5" d="M60,10V38H4V10a6,6,0,0,1,6-6H54A6,6,0,0,1,60,10Z"/><path class="cls-6" d="M26.25,28.44a1,1,0,0,1-.62-.22,1,1,0,0,1-.16-1.4L35,14.94a1,1,0,0,1,1.56,1.24L27,28.06A1,1,0,0,1,26.25,28.44Z"/><path class="cls-6" d="M23.36,28.86a1,1,0,0,1-.57-.18L13.07,22a1,1,0,0,1,1.14-1.64L23.93,27a1,1,0,0,1,.25,1.39A1,1,0,0,1,23.36,28.86Z"/><path class="cls-6" d="M50.39,24.82a1,1,0,0,1-.59-.19L38,16a1,1,0,1,1,1.18-1.62L51,23a1,1,0,0,1-.59,1.81Z"/><circle class="cls-7" cx="12" cy="20" r="2"/><circle class="cls-8" cx="25" cy="29" r="2"/><circle class="cls-9" cx="37" cy="14" r="2"/><circle class="cls-10" cx="52" cy="25" r="2"/></g></svg>