<svg xmlns="http://www.w3.org/2000/svg" xmlns:xlink="http://www.w3.org/1999/xlink" viewBox="0 0 64 64"><defs><style>.cls-1{fill:#f0f7fc;}.cls-2{fill:url(#linear-gradient);}.cls-3{fill:url(#linear-gradient-2);}.cls-4{fill:url(#linear-gradient-3);}.cls-5{fill:url(#linear-gradient-4);}.cls-6{fill:url(#linear-gradient-5);}.cls-7{fill:url(#linear-gradient-6);}.cls-8{fill:url(#linear-gradient-7);}.cls-9{fill:url(#linear-gradient-8);}.cls-10{fill:url(#linear-gradient-9);}.cls-11{fill:url(#linear-gradient-10);}</style><linearGradient id="linear-gradient" x1="32" y1="61" x2="32" y2="26" gradientUnits="userSpaceOnUse"><stop offset="0" stop-color="#54a5ff"/><stop offset="1" stop-color="#8ad3fe"/></linearGradient><linearGradient id="linear-gradient-2" y1="33" y2="3" xlink:href="#linear-gradient"/><linearGradient id="linear-gradient-3" x1="20" y1="27" x2="20" y2="15" gradientUnits="userSpaceOnUse"><stop offset="0" stop-color="#d3e6f5"/><stop offset="1" stop-color="#f0f7fc"/></linearGradient><linearGradient id="linear-gradient-4" x1="29.09" y1="49.91" x2="52.91" y2="26.09" xlink:href="#linear-gradient-3"/><linearGradient id="linear-gradient-5" x1="7" y1="19" x2="18" y2="19" gradientUnits="userSpaceOnUse"><stop offset="0" stop-color="#fe9661"/><stop offset="1" stop-color="#ffb369"/></linearGradient><linearGradient id="linear-gradient-6" x1="11.54" y1="27.96" x2="21.46" y2="18.04" xlink:href="#linear-gradient-5"/><linearGradient id="linear-gradient-7" x1="25" y1="36" x2="36" y2="36" xlink:href="#linear-gradient-5"/><linearGradient id="linear-gradient-8" x1="29.04" y1="44.46" x2="37.96" y2="35.54" xlink:href="#linear-gradient-5"/><linearGradient id="linear-gradient-9" x1="48.5" y1="41" x2="48.5" y2="39" xlink:href="#linear-gradient-5"/><linearGradient id="linear-gradient-10" x1="38" y1="36" x2="46" y2="36" xlink:href="#linear-gradient-5"/></defs><title>Smartphone</title><g id="Smartphone"><path class="cls-1" d="M15,49V9.6A5.64,5.64,0,0,1,20.67,4H44a5,5,0,0,1,5,5V49Z"/><path class="cls-2" d="M49,43a1,1,0,0,0-1,1v4H16V27a1,1,0,0,0-2,0V54.4A6.64,6.64,0,0,0,20.67,61H43.33A6.64,6.64,0,0,0,50,54.4V44A1,1,0,0,0,49,43Z"/><path class="cls-3" d="M44,3H20.67A6.64,6.64,0,0,0,14,9.6V15a1,1,0,0,0,2,0V9.6A4.64,4.64,0,0,1,20.67,5H24V8a3,3,0,0,0,3,3H37a3,3,0,0,0,3-3V5h4a4,4,0,0,1,4,4V32a1,1,0,0,0,2,0V9A6,6,0,0,0,44,3Z"/><rect class="cls-4" x="4" y="15" width="32" height="12" rx="2"/><rect class="cls-5" x="22" y="32" width="38" height="12" rx="2"/><path class="cls-6" d="M17,20H8a1,1,0,0,1,0-2h9a1,1,0,0,1,0,2Z"/><path class="cls-7" d="M25,24H8a1,1,0,0,1,0-2H25a1,1,0,0,1,0,2Z"/><path class="cls-8" d="M35,37H26a1,1,0,0,1,0-2h9a1,1,0,0,1,0,2Z"/><path class="cls-9" d="M41,41H26a1,1,0,0,1,0-2H41a1,1,0,0,1,0,2Z"/><path class="cls-10" d="M52,41H45a1,1,0,0,1,0-2h7a1,1,0,0,1,0,2Z"/><path class="cls-11" d="M45,37H39a1,1,0,0,1,0-2h6a1,1,0,0,1,0,2Z"/><path class="cls-1" d="M33,55H31a1,1,0,0,1,0-2h2a1,1,0,0,1,0,2Z"/></g></svg>