<svg xmlns="http://www.w3.org/2000/svg" xmlns:xlink="http://www.w3.org/1999/xlink" viewBox="0 0 64 64"><defs><style>.cls-1{fill:url(#linear-gradient);}.cls-2{fill:url(#linear-gradient-2);}.cls-3{fill:#4795ea;}.cls-4{fill:#0668cb;}.cls-5{fill:url(#linear-gradient-3);}.cls-6{fill:url(#linear-gradient-4);}.cls-7{fill:#f0f7fc;}.cls-8{fill:#d7e9f7;}.cls-9{fill:#eb7f58;}.cls-10{fill:#b4cde1;}.cls-11{fill:url(#linear-gradient-5);}</style><linearGradient id="linear-gradient" x1="32" y1="49.96" x2="32" y2="39.96" gradientUnits="userSpaceOnUse"><stop offset="0" stop-color="#54a5ff"/><stop offset="1" stop-color="#8ad3fe"/></linearGradient><linearGradient id="linear-gradient-2" x1="32" y1="39.96" x2="32" y2="6.04" gradientUnits="userSpaceOnUse"><stop offset="0" stop-color="#d3e6f5"/><stop offset="1" stop-color="#f0f7fc"/></linearGradient><linearGradient id="linear-gradient-3" x1="30" y1="44.96" x2="34" y2="44.96" xlink:href="#linear-gradient-2"/><linearGradient id="linear-gradient-4" x1="9" y1="7" x2="55" y2="7" xlink:href="#linear-gradient"/><linearGradient id="linear-gradient-5" x1="30" y1="23.7" x2="51" y2="23.7" xlink:href="#linear-gradient"/></defs><title>Web development</title><g id="Web_development" data-name="Web development"><path class="cls-1" d="M60,40v4a6,6,0,0,1-6,6H10a6,6,0,0,1-6-6V40Z"/><path class="cls-2" d="M60,12V40H4V12A6,6,0,0,1,9,6H55A6,6,0,0,1,60,12Z"/><polygon class="cls-3" points="42.29 61.95 21.71 61.95 25.83 49.95 38.17 49.95 42.29 61.95"/><path class="cls-4" d="M44,62H20a1,1,0,0,1,0-2H44a1,1,0,0,1,0,2Z"/><path class="cls-5" d="M33,46H31a1,1,0,0,1,0-2h2a1,1,0,0,1,0,2Z"/><path class="cls-6" d="M55,4v8H9V4a2,2,0,0,1,2-2H53A2,2,0,0,1,55,4Z"/><path class="cls-7" d="M55,12V33a2,2,0,0,1-2,2H11a2,2,0,0,1-2-2V12Z"/><path class="cls-8" d="M49,9a2,2,0,1,1,2-2A2,2,0,0,1,49,9Zm0-2Z"/><path class="cls-3" d="M43,9a2,2,0,1,1,2-2A2,2,0,0,1,43,9Zm0-2Z"/><path class="cls-9" d="M37,9a2,2,0,1,1,2-2A2,2,0,0,1,37,9Zm0-2Z"/><path class="cls-3" d="M31,8H14a1,1,0,0,1,0-2H31a1,1,0,0,1,0,2Z"/><path class="cls-10" d="M15,28a1,1,0,0,1-.83-.45l-2-3a1,1,0,0,1,0-1.1l2-3a1,1,0,0,1,1.66,1.1L14.2,24l1.63,2.45a1,1,0,0,1-.28,1.38A.94.94,0,0,1,15,28Z"/><path class="cls-10" d="M23,28a.94.94,0,0,1-.55-.17,1,1,0,0,1-.28-1.38L23.8,24l-1.63-2.45a1,1,0,1,1,1.66-1.1l2,3a1,1,0,0,1,0,1.1l-2,3A1,1,0,0,1,23,28Z"/><path class="cls-10" d="M18,28.87a1.07,1.07,0,0,1-.25,0A1,1,0,0,1,17,27.62l2-7.74a1,1,0,0,1,1.94.5l-2,7.74A1,1,0,0,1,18,28.87Z"/><path class="cls-3" d="M40,31H32a2,2,0,0,1-1.41-.59l3.68-3.68a2,2,0,0,1,3.08.3L38,28Z"/><path class="cls-11" d="M51,19V29a1.91,1.91,0,0,1-.56,1.37l-5.9-6.63a2,2,0,0,0-3,.05L38,28l-.65-1a2,2,0,0,0-3.08-.3l-3.68,3.68A2,2,0,0,1,30,29V19a2,2,0,0,1,2-2H49A2,2,0,0,1,51,19Z"/><path class="cls-3" d="M50.44,30.37A1.93,1.93,0,0,1,49,31H40l-2-3,3.51-4.21a2,2,0,0,1,3-.05Z"/><path class="cls-7" d="M36,24a2,2,0,1,1,2-2A2,2,0,0,1,36,24Zm0-2Z"/></g></svg>